<svg xmlns="http://www.w3.org/2000/svg" xmlns:xlink="http://www.w3.org/1999/xlink" version="1.1" id="Your_Icon" x="0px" y="0px" width="100px" height="100px" viewBox="5.0 -10.0 100.0 135.0" enable-background="new 0 0 100 100" xml:space="preserve">
<g>
	<g>
		<g>
		</g>
	</g>
	<g>
	</g>
</g>
<ellipse cx="13.25" cy="37.365" rx="4.428" ry="4.463"/>
<ellipse cx="86.617" cy="37.365" rx="4.429" ry="4.463"/>
<ellipse cx="49.933" cy="29.325" rx="4.13" ry="4.162"/>
<g>
	<path d="M94.197,67.234l-2.321-23.453l-7.663,0.232l-6.037,9.055l-4.844,0.765l-2.95-4.189h-6.184l-9.359-14.507l-9.415-0.017   L36.41,49.645h-6.222l-3.328,4.24l-5.167-0.815l-6.038-9.055l-7.662-0.232L5.67,67.234l9.266,1.854l-5.582,7.115H89.07   l-4.899-6.964L94.197,67.234z M81.425,57.018l3.019-3.717l1.163,8.594l-5.569,1.47l-4.467-6.347H81.425z M59.871,49.645h-3.087   l-0.27-4.319L59.871,49.645z M44.504,45.594l-0.188,4.05h-3.545L44.504,45.594z M14.262,61.895l1.161-8.594l3.02,3.717h5.961   l-4.909,6.257L14.262,61.895z M14.385,73.756L31.379,52.09h37.733l15.242,21.666H14.385z"/>
	<polygon points="68.285,56.134 68.347,56.071 68.285,55.978  "/>
</g>
<text x="0.0" y="117.5" font-size="5.0" font-weight="bold" font-family="Helvetica Neue, Helvetica, Arial-Unicode, Arial, Sans-serif" fill="#000000">Created by Gerald Wildmoser</text><text x="0.0" y="122.5" font-size="5.0" font-weight="bold" font-family="Helvetica Neue, Helvetica, Arial-Unicode, Arial, Sans-serif" fill="#000000">from the Noun Project</text></svg>